<svg width="54" height="54" viewBox="0 0 54 54" fill="none" xmlns="http://www.w3.org/2000/svg">
<path d="M46.125 24.75H42.75V15.75C42.75 13.275 40.725 11.25 38.25 11.25H29.25V7.875C29.25 4.77 26.73 2.25 23.625 2.25C20.52 2.25 18 4.77 18 7.875V11.25H9C6.525 11.25 4.5225 13.275 4.5225 15.75V24.3H7.875C11.2275 24.3 13.95 27.0225 13.95 30.375C13.95 33.7275 11.2275 36.45 7.875 36.45H4.5V45C4.5 47.475 6.525 49.5 9 49.5H17.55V46.125C17.55 42.7725 20.2725 40.05 23.625 40.05C26.9775 40.05 29.7 42.7725 29.7 46.125V49.5H38.25C40.725 49.5 42.75 47.475 42.75 45V36H46.125C49.23 36 51.75 33.48 51.75 30.375C51.75 27.27 49.23 24.75 46.125 24.75Z" fill="white"/>
</svg>
