<?xml version="1.0" standalone="no"?>
<!DOCTYPE svg PUBLIC "-//W3C//DTD SVG 20010904//EN"
 "http://www.w3.org/TR/2001/REC-SVG-20010904/DTD/svg10.dtd">
<svg version="1.0" xmlns="http://www.w3.org/2000/svg"
 width="700.000000pt" height="700.000000pt" viewBox="0 0 700.000000 700.000000"
 preserveAspectRatio="xMidYMid meet">
<metadata>
Created by potrace 1.14, written by Peter Selinger 2001-2017
</metadata>
<g transform="translate(0.000000,700.000000) scale(0.100000,-0.100000)"
fill="#000000" stroke="none">
<path d="M2975 6705 c-5 -2 -44 -11 -85 -20 -129 -30 -258 -103 -353 -201 -78
-80 -162 -233 -183 -334 -4 -19 -9 -42 -12 -50 -2 -8 -5 -134 -7 -280 -2 -146
-4 -268 -4 -271 -1 -4 -268 -7 -593 -7 -326 0 -618 -3 -648 -7 -186 -24 -356
-146 -439 -318 -23 -45 -43 -93 -45 -107 -2 -14 -7 -43 -12 -65 -8 -45 -12
-1172 -4 -1186 3 -4 117 -9 253 -9 278 -1 331 -7 451 -51 292 -106 498 -387
511 -699 15 -350 -187 -653 -520 -780 -92 -35 -190 -45 -446 -45 l-256 0 2
-605 c2 -546 4 -610 20 -660 65 -204 207 -345 410 -406 55 -17 112 -18 660
-19 l600 0 1 265 c2 342 15 405 113 574 52 89 149 193 231 248 147 97 296 138
475 133 386 -12 703 -308 751 -700 1 -11 3 -133 3 -271 l1 -251 598 2 c328 1
610 5 625 9 211 50 374 197 440 396 26 78 28 126 28 740 1 552 2 600 17 601
10 0 134 2 277 4 232 2 268 5 335 25 272 79 464 285 526 564 12 50 11 207 -1
271 -51 284 -272 512 -563 580 -47 11 -129 15 -327 15 l-263 0 -1 608 c0 334
-3 625 -6 647 -33 242 -250 458 -493 490 -29 4 -323 7 -653 7 l-599 1 -1 263
c-1 145 -2 267 -3 272 -1 4 -5 25 -9 47 -20 105 -86 239 -168 336 -81 96 -230
189 -364 224 -52 14 -240 28 -270 20z"/>
</g>
</svg>
